<svg xmlns="http://www.w3.org/2000/svg" viewBox="0 0 64 64">
  <defs>
    <linearGradient
      id="b"
      x1="21.6"
      x2="63.1"
      y1="146"
      y2="104.6"
      gradientTransform="matrix(1 0 0 -1 0 146.9)"
      gradientUnits="userSpaceOnUse"
    >
      <stop offset="0" stop-color="#006edc" />
      <stop offset="1" stop-color="#1fd9ff" />
    </linearGradient>
    <linearGradient
      id="c"
      x1=".9"
      x2="42.4"
      y1="125.3"
      y2="83.8"
      gradientTransform="matrix(1 0 0 -1 0 146.9)"
      gradientUnits="userSpaceOnUse"
    >
      <stop offset="0" stop-color="#514ac6" />
      <stop offset="1" stop-color="#191c64" />
    </linearGradient>
    <linearGradient
      id="d"
      x1="18.5"
      x2="42.4"
      y1="134.3"
      y2="134.3"
      gradientTransform="matrix(1 0 0 -1 0 146.9)"
      gradientUnits="userSpaceOnUse"
    >
      <stop offset="0" stop-color="#003b97" />
      <stop offset="0" stop-color="#003b9f" stop-opacity=".9" />
      <stop offset=".4" stop-color="#003bbb" stop-opacity=".5" />
      <stop offset=".7" stop-color="#003ccf" stop-opacity=".2" />
      <stop offset=".9" stop-color="#003cdb" stop-opacity="0" />
      <stop offset="1" stop-color="#003de0" stop-opacity="0" />
    </linearGradient>
    <linearGradient
      id="e"
      x1="21.3"
      x2="45.2"
      y1="95.5"
      y2="95.5"
      gradientTransform="matrix(1 0 0 -1 0 146.9)"
      gradientUnits="userSpaceOnUse"
    >
      <stop offset="0" stop-color="#1b0064" stop-opacity="0" />
      <stop offset=".2" stop-color="#190061" stop-opacity=".1" />
      <stop offset=".5" stop-color="#13005b" stop-opacity=".4" />
      <stop offset="1" stop-color="#0a0051" stop-opacity=".9" />
      <stop offset="1" stop-color="#0a0050" />
    </linearGradient>
    <linearGradient
      id="f"
      x1="44.5"
      x2="13.4"
      y1="106.7"
      y2="137.8"
      gradientTransform="matrix(1 0 0 -1 0 146.9)"
      gradientUnits="userSpaceOnUse"
    >
      <stop offset="0" stop-color="#006edc" />
      <stop offset="1" stop-color="#1fd9ff" />
    </linearGradient>
    <linearGradient
      id="g"
      x1="50.6"
      x2="19.5"
      y1="92.1"
      y2="123.1"
      gradientTransform="matrix(1 0 0 -1 0 146.9)"
      gradientUnits="userSpaceOnUse"
    >
      <stop offset="0" stop-color="#514ac6" />
      <stop offset="1" stop-color="#191c64" />
    </linearGradient>
    <mask
      id="a"
      width="82.9"
      height="82.9"
      x="-9.4"
      y="-9.4"
      maskUnits="userSpaceOnUse"
    >
      <path
        d="M32 61.3c16.2 0 29.3-13.1 29.3-29.3S48.2 2.7 32 2.7 2.7 15.8 2.7 32 15.8 61.3 32 61.3Z"
        style="fill: #fff"
      />
    </mask>
  </defs>
  <g style="mask: url(#a)">
    <path
      d="M73.4 32 32-9.4 21.6.9 11.2 11.3l41.5 41.5 10.4-10.4L73.5 32Z"
      style="fill: url(#b)"
    />
    <path
      d="m42.4 63.1 10.4-10.4-41.5-41.4L.9 21.6-9.5 32l41.4 41.5 10.4-10.4Z"
      style="fill: url(#c)"
    />
    <path d="M42.4 2.7H18.5v19.9h23.9V2.7Z" style="fill: url(#d)" />
    <path d="M45.2 41.5H21.3v19.9h23.9V41.5Z" style="fill: url(#e)" />
    <path
      d="m11.3 32 10.4 10.4c5.7 5.7 15 5.7 20.7 0L21.7 21.7c-5.8-5.8-4.7-19 10.3-19L21.6.9 11.2 11.3c-5.7 5.7-5.7 15 0 20.7Z"
      style="fill: url(#f)"
    />
    <path
      d="m21.6 21.6 20.7 20.7C48 48 45 61.2 31.9 61.2L42.3 63l10.4-10.4c5.7-5.7 5.7-15 0-20.7L42.3 21.5c-5.7-5.7-15-5.7-20.7 0Z"
      style="fill: url(#g)"
    />
  </g>
</svg>
